<svg xmlns="http://www.w3.org/2000/svg" xmlns:xlink="http://www.w3.org/1999/xlink" width="500" zoomAndPan="magnify" viewBox="0 0 375 374.999991" height="500" preserveAspectRatio="xMidYMid meet" version="1.0"><defs><g/><clipPath id="fc753ee8c8"><path d="M 29 24 L 352 24 L 352 350 L 29 350 Z M 29 24 " clip-rule="nonzero"/></clipPath><clipPath id="c16ea77fa5"><path d="M -26.082031 97.464844 L 276.710938 -26.71875 L 401.34375 277.179688 L 98.550781 401.359375 Z M -26.082031 97.464844 " clip-rule="nonzero"/></clipPath><clipPath id="b5b6644136"><path d="M -26.082031 97.464844 L 276.710938 -26.71875 L 401.34375 277.179688 L 98.550781 401.359375 Z M -26.082031 97.464844 " clip-rule="nonzero"/></clipPath><clipPath id="a0193f411e"><path d="M -26.082031 97.464844 L 276.710938 -26.71875 L 401.34375 277.179688 L 98.550781 401.359375 Z M -26.082031 97.464844 " clip-rule="nonzero"/></clipPath><clipPath id="ae9bbd6fd0"><path d="M 273.421875 51.878906 C 271.539062 50.800781 269.632812 49.761719 267.699219 48.761719 C 258.5625 42.402344 248.671875 37.132812 238.085938 33.269531 C 203.25 20.527344 163.367188 22.1875 128.808594 35.113281 C 95.714844 47.5 67.566406 71.003906 50.109375 101.746094 C 42.148438 115.761719 36.625 131.058594 33.839844 146.929688 C 33.457031 149.105469 36.847656 149.570312 37.234375 147.402344 C 42.945312 115.234375 60.480469 85.664062 85.402344 64.570312 C 113.542969 40.75 150.472656 28.21875 187.195312 28.203125 C 203.589844 28.195312 219.53125 30.851562 234.5 36.082031 C 216.3125 31.375 197.300781 29.832031 178.597656 31.679688 C 145.671875 34.929688 114.75 49.3125 90.125 71.253906 C 82.085938 78.417969 74.757812 86.324219 68.207031 94.808594 C 60.074219 104.417969 52.980469 114.929688 47.109375 126.226562 C 32.722656 153.890625 26.898438 184.683594 31.433594 215.050781 C 32.542969 229.460938 35.601562 243.785156 40.777344 257.625 C 52.253906 288.308594 74.277344 313.320312 102.796875 329.296875 C 129.835938 344.441406 161.691406 351.214844 192.59375 348.492188 C 194.339844 348.339844 196.089844 348.140625 197.835938 347.929688 C 198.929688 347.847656 200.011719 347.757812 201.089844 347.652344 C 235.367188 344.4375 268.863281 331.46875 295.269531 309.183594 C 319.945312 288.359375 337.628906 259.804688 346.195312 228.773438 C 355.25 195.957031 353.179688 161.203125 340.503906 129.640625 C 327.472656 97.183594 303.84375 69.304688 273.421875 51.878906 Z M 227.554688 38.648438 C 242.117188 41.777344 256.101562 47.007812 269.023438 54.105469 C 273.742188 57.515625 278.277344 61.253906 282.59375 65.324219 C 307.121094 88.433594 323.992188 119.757812 331.359375 152.527344 C 338.914062 186.117188 335.765625 220.898438 319.257812 251.425781 C 310.546875 267.535156 299.101562 282.273438 286.816406 295.8125 C 273.59375 310.390625 258.449219 323.214844 240.480469 331.546875 C 226.503906 338.03125 211.523438 342.058594 196.265625 343.753906 C 180.917969 344.792969 165.441406 343.875 150.34375 340.972656 C 132.773438 337.597656 115.34375 331.675781 100.695312 321.199219 C 85.773438 310.527344 73.632812 296.082031 63.367188 281 C 50 261.359375 40.046875 239.132812 36.070312 215.882812 C 32.996094 178.484375 43.136719 139.515625 63.871094 108.359375 C 65.625 105.71875 67.464844 103.121094 69.363281 100.570312 C 73.160156 95.828125 77.203125 91.289062 81.453125 86.992188 C 93.265625 75.050781 106.917969 64.769531 121.777344 56.917969 C 123.125 56.203125 123.179688 54.632812 122.535156 53.660156 C 126.695312 51.363281 130.960938 49.246094 135.335938 47.347656 C 164.285156 34.757812 196.765625 32.042969 227.554688 38.648438 Z M 50.105469 267.984375 C 53.207031 273.570312 56.582031 279 60.1875 284.257812 C 63.476562 289.050781 66.960938 293.78125 70.660156 298.355469 C 70.082031 297.710938 69.5 297.066406 68.925781 296.40625 C 61.300781 287.65625 55.054688 278.09375 50.105469 267.984375 Z M 322.957031 272.074219 C 305.394531 299.320312 279.550781 319.984375 249.417969 331.863281 C 248.738281 332.128906 248.046875 332.386719 247.367188 332.648438 C 264.457031 323.605469 278.875 310.625 291.605469 296.171875 C 303.886719 282.222656 315.308594 267.191406 323.933594 250.6875 C 332.246094 234.789062 337.320312 217.476562 338.808594 199.605469 C 341.65625 165.460938 332.460938 130.960938 315.332031 101.515625 C 308.472656 89.714844 300.238281 78.574219 290.785156 68.648438 C 298.019531 74.464844 304.726562 80.976562 310.785156 88.121094 C 333.078125 114.421875 346.570312 147.960938 347.828125 182.480469 C 348.972656 213.96875 340.015625 245.589844 322.957031 272.074219 Z M 322.957031 272.074219 " clip-rule="nonzero"/></clipPath><linearGradient x1="-130.53273" gradientTransform="matrix(0.60314, -0.247357, 0.246894, 0.602012, -30.016324, 95.490298)" y1="34.786843" x2="649.866121" gradientUnits="userSpaceOnUse" y2="485.350605" id="c16e297e64"><stop stop-opacity="1" stop-color="rgb(70.999146%, 38.798523%, 46.299744%)" offset="0"/><stop stop-opacity="1" stop-color="rgb(70.999146%, 38.798523%, 46.299744%)" offset="0.125"/><stop stop-opacity="1" stop-color="rgb(70.999146%, 38.798523%, 46.299744%)" offset="0.1875"/><stop stop-opacity="1" stop-color="rgb(70.999146%, 38.798523%, 46.299744%)" offset="0.21875"/><stop stop-opacity="1" stop-color="rgb(70.999146%, 38.798523%, 46.299744%)" offset="0.226562"/><stop stop-opacity="1" stop-color="rgb(71.578979%, 39.703369%, 47.148132%)" offset="0.230469"/><stop stop-opacity="1" stop-color="rgb(72.158813%, 40.609741%, 47.998047%)" offset="0.234375"/><stop stop-opacity="1" stop-color="rgb(73.001099%, 41.926575%, 49.234009%)" offset="0.238281"/><stop stop-opacity="1" stop-color="rgb(73.84491%, 43.244934%, 50.471497%)" offset="0.242188"/><stop stop-opacity="1" stop-color="rgb(74.688721%, 44.561768%, 51.707458%)" offset="0.246094"/><stop stop-opacity="1" stop-color="rgb(75.532532%, 45.878601%, 52.944946%)" offset="0.25"/><stop stop-opacity="1" stop-color="rgb(76.376343%, 47.195435%, 54.180908%)" offset="0.253906"/><stop stop-opacity="1" stop-color="rgb(77.220154%, 48.513794%, 55.418396%)" offset="0.257812"/><stop stop-opacity="1" stop-color="rgb(78.062439%, 49.830627%, 56.654358%)" offset="0.261719"/><stop stop-opacity="1" stop-color="rgb(78.90625%, 51.148987%, 57.891846%)" offset="0.265625"/><stop stop-opacity="1" stop-color="rgb(79.750061%, 52.46582%, 59.129333%)" offset="0.269531"/><stop stop-opacity="1" stop-color="rgb(80.593872%, 53.78418%, 60.366821%)" offset="0.273438"/><stop stop-opacity="1" stop-color="rgb(81.437683%, 55.101013%, 61.602783%)" offset="0.277344"/><stop stop-opacity="1" stop-color="rgb(82.281494%, 56.417847%, 62.840271%)" offset="0.28125"/><stop stop-opacity="1" stop-color="rgb(83.123779%, 57.73468%, 64.076233%)" offset="0.285156"/><stop stop-opacity="1" stop-color="rgb(83.96759%, 59.05304%, 65.313721%)" offset="0.289062"/><stop stop-opacity="1" stop-color="rgb(84.811401%, 60.369873%, 66.549683%)" offset="0.292969"/><stop stop-opacity="1" stop-color="rgb(85.655212%, 61.688232%, 67.78717%)" offset="0.296875"/><stop stop-opacity="1" stop-color="rgb(86.497498%, 63.005066%, 69.023132%)" offset="0.300781"/><stop stop-opacity="1" stop-color="rgb(87.341309%, 64.321899%, 70.26062%)" offset="0.304688"/><stop stop-opacity="1" stop-color="rgb(88.18512%, 65.638733%, 71.496582%)" offset="0.308594"/><stop stop-opacity="1" stop-color="rgb(89.028931%, 66.957092%, 72.73407%)" offset="0.3125"/><stop stop-opacity="1" stop-color="rgb(89.872742%, 68.273926%, 73.970032%)" offset="0.316406"/><stop stop-opacity="1" stop-color="rgb(90.716553%, 69.592285%, 75.20752%)" offset="0.320312"/><stop stop-opacity="1" stop-color="rgb(91.558838%, 70.909119%, 76.443481%)" offset="0.324219"/><stop stop-opacity="1" stop-color="rgb(92.402649%, 72.227478%, 77.680969%)" offset="0.328125"/><stop stop-opacity="1" stop-color="rgb(93.24646%, 73.544312%, 78.916931%)" offset="0.332031"/><stop stop-opacity="1" stop-color="rgb(94.090271%, 74.861145%, 80.154419%)" offset="0.335938"/><stop stop-opacity="1" stop-color="rgb(94.934082%, 76.177979%, 81.390381%)" offset="0.339844"/><stop stop-opacity="1" stop-color="rgb(95.777893%, 77.496338%, 82.627869%)" offset="0.34375"/><stop stop-opacity="1" stop-color="rgb(95.492554%, 77.076721%, 82.174683%)" offset="0.347656"/><stop stop-opacity="1" stop-color="rgb(95.207214%, 76.657104%, 81.723022%)" offset="0.351562"/><stop stop-opacity="1" stop-color="rgb(94.656372%, 75.828552%, 80.873108%)" offset="0.355469"/><stop stop-opacity="1" stop-color="rgb(94.10553%, 75%, 80.023193%)" offset="0.359375"/><stop stop-opacity="1" stop-color="rgb(93.554688%, 74.169922%, 79.171753%)" offset="0.363281"/><stop stop-opacity="1" stop-color="rgb(93.003845%, 73.34137%, 78.321838%)" offset="0.367187"/><stop stop-opacity="1" stop-color="rgb(92.453003%, 72.512817%, 77.471924%)" offset="0.371094"/><stop stop-opacity="1" stop-color="rgb(91.902161%, 71.684265%, 76.622009%)" offset="0.375"/><stop stop-opacity="1" stop-color="rgb(91.351318%, 70.854187%, 75.772095%)" offset="0.378906"/><stop stop-opacity="1" stop-color="rgb(90.800476%, 70.025635%, 74.92218%)" offset="0.382812"/><stop stop-opacity="1" stop-color="rgb(90.249634%, 69.195557%, 74.07074%)" offset="0.386719"/><stop stop-opacity="1" stop-color="rgb(89.698792%, 68.367004%, 73.220825%)" offset="0.390625"/><stop stop-opacity="1" stop-color="rgb(89.147949%, 67.538452%, 72.370911%)" offset="0.394531"/><stop stop-opacity="1" stop-color="rgb(88.597107%, 66.7099%, 71.520996%)" offset="0.398437"/><stop stop-opacity="1" stop-color="rgb(88.046265%, 65.879822%, 70.671082%)" offset="0.402344"/><stop stop-opacity="1" stop-color="rgb(87.495422%, 65.05127%, 69.821167%)" offset="0.40625"/><stop stop-opacity="1" stop-color="rgb(86.94458%, 64.222717%, 68.969727%)" offset="0.410156"/><stop stop-opacity="1" stop-color="rgb(86.393738%, 63.394165%, 68.119812%)" offset="0.414062"/><stop stop-opacity="1" stop-color="rgb(85.842896%, 62.564087%, 67.269897%)" offset="0.417969"/><stop stop-opacity="1" stop-color="rgb(85.292053%, 61.735535%, 66.419983%)" offset="0.421875"/><stop stop-opacity="1" stop-color="rgb(84.739685%, 60.905457%, 65.570068%)" offset="0.425781"/><stop stop-opacity="1" stop-color="rgb(84.188843%, 60.076904%, 64.720154%)" offset="0.429687"/><stop stop-opacity="1" stop-color="rgb(83.638%, 59.248352%, 63.868713%)" offset="0.433594"/><stop stop-opacity="1" stop-color="rgb(83.087158%, 58.4198%, 63.018799%)" offset="0.4375"/><stop stop-opacity="1" stop-color="rgb(82.536316%, 57.589722%, 62.168884%)" offset="0.441406"/><stop stop-opacity="1" stop-color="rgb(81.985474%, 56.761169%, 61.31897%)" offset="0.445312"/><stop stop-opacity="1" stop-color="rgb(81.434631%, 55.932617%, 60.467529%)" offset="0.449219"/><stop stop-opacity="1" stop-color="rgb(80.883789%, 55.104065%, 59.617615%)" offset="0.453125"/><stop stop-opacity="1" stop-color="rgb(80.332947%, 54.273987%, 58.7677%)" offset="0.457031"/><stop stop-opacity="1" stop-color="rgb(79.782104%, 53.445435%, 57.917786%)" offset="0.460937"/><stop stop-opacity="1" stop-color="rgb(79.231262%, 52.615356%, 57.067871%)" offset="0.464844"/><stop stop-opacity="1" stop-color="rgb(78.68042%, 51.786804%, 56.217957%)" offset="0.46875"/><stop stop-opacity="1" stop-color="rgb(78.129578%, 50.958252%, 55.366516%)" offset="0.472656"/><stop stop-opacity="1" stop-color="rgb(77.578735%, 50.1297%, 54.516602%)" offset="0.476562"/><stop stop-opacity="1" stop-color="rgb(77.027893%, 49.299622%, 53.666687%)" offset="0.480469"/><stop stop-opacity="1" stop-color="rgb(76.477051%, 48.471069%, 52.816772%)" offset="0.484375"/><stop stop-opacity="1" stop-color="rgb(75.926208%, 47.642517%, 51.966858%)" offset="0.488281"/><stop stop-opacity="1" stop-color="rgb(75.375366%, 46.813965%, 51.116943%)" offset="0.492187"/><stop stop-opacity="1" stop-color="rgb(75.852966%, 47.694397%, 51.948547%)" offset="0.496094"/><stop stop-opacity="1" stop-color="rgb(76.330566%, 48.574829%, 52.780151%)" offset="0.5"/><stop stop-opacity="1" stop-color="rgb(76.88446%, 49.581909%, 53.736877%)" offset="0.503906"/><stop stop-opacity="1" stop-color="rgb(77.438354%, 50.588989%, 54.693604%)" offset="0.507812"/><stop stop-opacity="1" stop-color="rgb(77.992249%, 51.596069%, 55.65033%)" offset="0.511719"/><stop stop-opacity="1" stop-color="rgb(78.546143%, 52.603149%, 56.607056%)" offset="0.515625"/><stop stop-opacity="1" stop-color="rgb(79.100037%, 53.610229%, 57.563782%)" offset="0.519531"/><stop stop-opacity="1" stop-color="rgb(79.653931%, 54.61731%, 58.520508%)" offset="0.523438"/><stop stop-opacity="1" stop-color="rgb(80.207825%, 55.62439%, 59.477234%)" offset="0.527344"/><stop stop-opacity="1" stop-color="rgb(80.761719%, 56.63147%, 60.43396%)" offset="0.53125"/><stop stop-opacity="1" stop-color="rgb(81.315613%, 57.637024%, 61.390686%)" offset="0.535156"/><stop stop-opacity="1" stop-color="rgb(81.869507%, 58.644104%, 62.347412%)" offset="0.539062"/><stop stop-opacity="1" stop-color="rgb(82.423401%, 59.651184%, 63.304138%)" offset="0.542969"/><stop stop-opacity="1" stop-color="rgb(82.977295%, 60.658264%, 64.260864%)" offset="0.546875"/><stop stop-opacity="1" stop-color="rgb(83.531189%, 61.665344%, 65.21759%)" offset="0.550781"/><stop stop-opacity="1" stop-color="rgb(84.085083%, 62.672424%, 66.174316%)" offset="0.554688"/><stop stop-opacity="1" stop-color="rgb(84.638977%, 63.679504%, 67.131042%)" offset="0.558594"/><stop stop-opacity="1" stop-color="rgb(85.192871%, 64.686584%, 68.087769%)" offset="0.5625"/><stop stop-opacity="1" stop-color="rgb(85.746765%, 65.693665%, 69.044495%)" offset="0.566406"/><stop stop-opacity="1" stop-color="rgb(86.300659%, 66.700745%, 70.001221%)" offset="0.570312"/><stop stop-opacity="1" stop-color="rgb(86.854553%, 67.707825%, 70.957947%)" offset="0.574219"/><stop stop-opacity="1" stop-color="rgb(87.408447%, 68.714905%, 71.914673%)" offset="0.578125"/><stop stop-opacity="1" stop-color="rgb(87.962341%, 69.721985%, 72.871399%)" offset="0.582031"/><stop stop-opacity="1" stop-color="rgb(88.516235%, 70.729065%, 73.828125%)" offset="0.585938"/><stop stop-opacity="1" stop-color="rgb(89.070129%, 71.736145%, 74.784851%)" offset="0.589844"/><stop stop-opacity="1" stop-color="rgb(89.624023%, 72.743225%, 75.741577%)" offset="0.59375"/><stop stop-opacity="1" stop-color="rgb(90.177917%, 73.750305%, 76.696777%)" offset="0.597656"/><stop stop-opacity="1" stop-color="rgb(90.731812%, 74.757385%, 77.653503%)" offset="0.601562"/><stop stop-opacity="1" stop-color="rgb(91.28418%, 75.764465%, 78.610229%)" offset="0.605469"/><stop stop-opacity="1" stop-color="rgb(91.838074%, 76.771545%, 79.566956%)" offset="0.609375"/><stop stop-opacity="1" stop-color="rgb(92.391968%, 77.778625%, 80.523682%)" offset="0.613281"/><stop stop-opacity="1" stop-color="rgb(92.945862%, 78.785706%, 81.480408%)" offset="0.617188"/><stop stop-opacity="1" stop-color="rgb(93.499756%, 79.792786%, 82.437134%)" offset="0.621094"/><stop stop-opacity="1" stop-color="rgb(94.05365%, 80.799866%, 83.39386%)" offset="0.625"/><stop stop-opacity="1" stop-color="rgb(94.607544%, 81.806946%, 84.350586%)" offset="0.628906"/><stop stop-opacity="1" stop-color="rgb(95.161438%, 82.814026%, 85.307312%)" offset="0.632812"/><stop stop-opacity="1" stop-color="rgb(95.715332%, 83.81958%, 86.264038%)" offset="0.636719"/><stop stop-opacity="1" stop-color="rgb(96.269226%, 84.82666%, 87.220764%)" offset="0.640625"/><stop stop-opacity="1" stop-color="rgb(96.731567%, 85.658264%, 88.008118%)" offset="0.644531"/><stop stop-opacity="1" stop-color="rgb(97.193909%, 86.489868%, 88.796997%)" offset="0.648438"/><stop stop-opacity="1" stop-color="rgb(96.450806%, 85.005188%, 87.362671%)" offset="0.652344"/><stop stop-opacity="1" stop-color="rgb(95.707703%, 83.522034%, 85.928345%)" offset="0.65625"/><stop stop-opacity="1" stop-color="rgb(94.963074%, 82.037354%, 84.494019%)" offset="0.660156"/><stop stop-opacity="1" stop-color="rgb(94.219971%, 80.554199%, 83.059692%)" offset="0.664062"/><stop stop-opacity="1" stop-color="rgb(93.476868%, 79.069519%, 81.625366%)" offset="0.667969"/><stop stop-opacity="1" stop-color="rgb(92.733765%, 77.586365%, 80.19104%)" offset="0.671875"/><stop stop-opacity="1" stop-color="rgb(91.989136%, 76.10321%, 78.756714%)" offset="0.675781"/><stop stop-opacity="1" stop-color="rgb(91.246033%, 74.620056%, 77.322388%)" offset="0.679688"/><stop stop-opacity="1" stop-color="rgb(90.50293%, 73.135376%, 75.888062%)" offset="0.683594"/><stop stop-opacity="1" stop-color="rgb(89.759827%, 71.652222%, 74.455261%)" offset="0.6875"/><stop stop-opacity="1" stop-color="rgb(89.016724%, 70.167542%, 73.020935%)" offset="0.691406"/><stop stop-opacity="1" stop-color="rgb(88.273621%, 68.684387%, 71.586609%)" offset="0.695312"/><stop stop-opacity="1" stop-color="rgb(87.528992%, 67.199707%, 70.152283%)" offset="0.699219"/><stop stop-opacity="1" stop-color="rgb(86.785889%, 65.716553%, 68.717957%)" offset="0.703125"/><stop stop-opacity="1" stop-color="rgb(86.042786%, 64.231873%, 67.28363%)" offset="0.707031"/><stop stop-opacity="1" stop-color="rgb(85.299683%, 62.748718%, 65.849304%)" offset="0.710938"/><stop stop-opacity="1" stop-color="rgb(84.555054%, 61.264038%, 64.414978%)" offset="0.714844"/><stop stop-opacity="1" stop-color="rgb(83.811951%, 59.780884%, 62.980652%)" offset="0.71875"/><stop stop-opacity="1" stop-color="rgb(83.068848%, 58.297729%, 61.546326%)" offset="0.722656"/><stop stop-opacity="1" stop-color="rgb(82.325745%, 56.814575%, 60.112%)" offset="0.726562"/><stop stop-opacity="1" stop-color="rgb(81.581116%, 55.329895%, 58.677673%)" offset="0.730469"/><stop stop-opacity="1" stop-color="rgb(80.838013%, 53.846741%, 57.243347%)" offset="0.734375"/><stop stop-opacity="1" stop-color="rgb(80.09491%, 52.362061%, 55.809021%)" offset="0.738281"/><stop stop-opacity="1" stop-color="rgb(79.351807%, 50.878906%, 54.374695%)" offset="0.742188"/><stop stop-opacity="1" stop-color="rgb(78.607178%, 49.394226%, 52.940369%)" offset="0.746094"/><stop stop-opacity="1" stop-color="rgb(77.864075%, 47.911072%, 51.507568%)" offset="0.75"/><stop stop-opacity="1" stop-color="rgb(77.120972%, 46.426392%, 50.073242%)" offset="0.753906"/><stop stop-opacity="1" stop-color="rgb(76.377869%, 44.943237%, 48.638916%)" offset="0.757812"/><stop stop-opacity="1" stop-color="rgb(75.634766%, 43.458557%, 47.20459%)" offset="0.761719"/><stop stop-opacity="1" stop-color="rgb(74.891663%, 41.975403%, 45.770264%)" offset="0.765625"/><stop stop-opacity="1" stop-color="rgb(74.147034%, 40.492249%, 44.335938%)" offset="0.769531"/><stop stop-opacity="1" stop-color="rgb(73.403931%, 39.009094%, 42.901611%)" offset="0.773437"/><stop stop-opacity="1" stop-color="rgb(73.350525%, 38.903809%, 42.799377%)" offset="0.78125"/><stop stop-opacity="1" stop-color="rgb(73.298645%, 38.798523%, 42.698669%)" offset="0.8125"/><stop stop-opacity="1" stop-color="rgb(73.298645%, 38.798523%, 42.698669%)" offset="0.875"/><stop stop-opacity="1" stop-color="rgb(73.298645%, 38.798523%, 42.698669%)" offset="1"/></linearGradient><clipPath id="1d60f0a5c8"><path d="M 0 122.832031 L 375 122.832031 L 375 252.167969 L 0 252.167969 Z M 0 122.832031 " clip-rule="nonzero"/></clipPath></defs><g clip-path="url(#fc753ee8c8)"><g clip-path="url(#c16ea77fa5)"><g clip-path="url(#b5b6644136)"><g clip-path="url(#a0193f411e)"><g clip-path="url(#ae9bbd6fd0)"><path fill="url(#c16e297e64)" d="M -89.195312 68.140625 L 74.171875 466.488281 L 471.34375 303.601562 L 307.972656 -94.746094 Z M -89.195312 68.140625 " fill-rule="nonzero"/></g></g></g></g></g><g clip-path="url(#1d60f0a5c8)"><path fill="#ffffff" d="M -80.304688 122.832031 L 455.242188 122.832031 L 455.242188 252.167969 L -80.304688 252.167969 Z M -80.304688 122.832031 " fill-opacity="1" fill-rule="nonzero"/></g><g fill="#bb636d" fill-opacity="1"><g transform="translate(10.609217, 200.093463)"><g><path d="M 42.699219 13.832031 C 41.679688 13.644531 41.492188 13.179688 40.75 12.53125 C 34.902344 8.074219 27.847656 7.242188 20.980469 7.242188 C 18.566406 7.242188 16.246094 7.332031 13.921875 7.425781 C 11.601562 7.425781 8.820312 7.984375 6.589844 7.984375 C 6.589844 6.589844 6.777344 6.21875 6.777344 4.546875 C 6.867188 2.878906 7.054688 2.785156 8.167969 1.949219 C 16.335938 -3.898438 30.167969 -10.304688 39.914062 -13.089844 C 41.585938 -13.460938 44.648438 -14.574219 46.320312 -14.574219 L 43.441406 6.40625 C 43.070312 8.820312 42.699219 11.324219 42.699219 13.832031 Z M 46.96875 -17.914062 C 23.113281 -12.4375 8.539062 -1.484375 7.425781 -1.207031 C 7.425781 -6.777344 8.539062 -12.347656 9.003906 -17.636719 C 9.746094 -27.199219 12.808594 -48.734375 14.480469 -58.109375 C 14.757812 -59.59375 16.617188 -68.226562 14.757812 -69.710938 C 14.386719 -69.992188 14.015625 -70.082031 13.832031 -70.082031 C 13.367188 -70.082031 13.179688 -69.710938 13.179688 -69.710938 C 11.882812 -69.0625 12.4375 -69.433594 11.601562 -65.71875 C 8.632812 -50.960938 6.40625 -36.109375 4.457031 -21.257812 L 3.433594 -10.675781 C 3.433594 -7.148438 2.785156 -3.621094 2.597656 -0.1875 C 2.507812 2.320312 2.785156 2.785156 1.300781 4.269531 C -1.300781 6.867188 -1.949219 10.488281 1.671875 10.769531 C 1.671875 15.78125 0.648438 21.535156 0.648438 24.878906 C 0.648438 30.539062 0.1875 36.851562 0.1875 43.8125 C 0.1875 44.925781 0.929688 46.320312 1.949219 46.320312 C 4.546875 46.320312 3.992188 44.371094 4.085938 41.957031 L 5.011719 29.332031 C 5.011719 27.382812 5.105469 25.15625 5.382812 23.019531 L 6.589844 10.953125 C 7.242188 10.304688 20.699219 10.210938 23.671875 10.210938 C 29.796875 10.210938 35.832031 12.253906 39.171875 15.128906 C 42.328125 17.730469 41.863281 17.542969 41.679688 22.09375 C 41.492188 26.457031 41.027344 29.148438 41.027344 34.34375 C 41.027344 35.460938 41.863281 36.574219 42.976562 36.574219 C 43.90625 36.574219 45.019531 35.644531 45.761719 32.765625 C 46.785156 28.777344 46.691406 28.21875 46.691406 24.226562 C 46.691406 19.308594 45.019531 23.300781 46.414062 14.480469 L 50.867188 -15.78125 L 58.851562 -17.453125 C 63.769531 -18.195312 70.082031 -19.492188 75.1875 -19.492188 C 75.28125 -19.492188 75.46875 -19.492188 75.652344 -19.492188 C 76.300781 -19.492188 76.953125 -19.402344 77.507812 -19.402344 C 78.34375 -19.402344 79.085938 -19.585938 79.179688 -20.515625 C 79.457031 -22.09375 77.324219 -22.648438 74.445312 -22.648438 C 68.597656 -22.648438 59.222656 -20.515625 57.273438 -20.144531 C 56.066406 -19.957031 52.445312 -19.308594 51.519531 -18.9375 C 52.167969 -26.917969 58.851562 -55.507812 60.988281 -63.863281 C 62.007812 -67.667969 62.84375 -68.597656 62.285156 -71.570312 C 61.730469 -71.660156 61.265625 -71.753906 60.800781 -71.753906 C 59.316406 -71.753906 59.316406 -70.546875 58.015625 -66.554688 C 54.765625 -56.996094 50.125 -35.738281 48.175781 -25.25 C 47.804688 -22.835938 47.433594 -20.234375 46.96875 -17.914062 Z M 46.96875 -17.914062 "/></g></g></g><g fill="#bb636d" fill-opacity="1"><g transform="translate(84.49838, 200.093463)"><g><path d="M 7.703125 0.371094 C 12.066406 0.371094 15.59375 -3.714844 17.824219 -6.035156 C 19.308594 -7.519531 24.878906 -13.738281 24.878906 -15.5 C 24.878906 -16.335938 24.597656 -16.617188 24.226562 -16.617188 C 22.464844 -16.617188 17.542969 -10.023438 17.171875 -9.5625 C 15.78125 -7.796875 10.953125 -2.878906 7.984375 -2.878906 C 5.476562 -2.878906 4.457031 -8.355469 4.457031 -11.140625 C 4.457031 -20.605469 8.167969 -24.785156 3.898438 -24.785156 C 2.042969 -24.785156 1.113281 -20.605469 0.835938 -18.65625 C -0.1875 -13.921875 0 -7.519531 2.226562 -3.339844 C 3.25 -1.578125 5.199219 0.371094 7.703125 0.371094 Z M 4.734375 -36.480469 C 4.734375 -34.4375 5.941406 -33.511719 7.242188 -33.511719 C 9.097656 -33.511719 11.046875 -35.550781 9.28125 -38.988281 C 8.726562 -40.007812 8.074219 -40.378906 7.425781 -40.378906 C 6.035156 -40.378906 4.734375 -38.617188 4.734375 -36.480469 Z M 4.734375 -36.480469 "/></g></g></g><g fill="#bb636d" fill-opacity="1"><g transform="translate(105.662607, 200.093463)"><g><path d="M -16.335938 34.714844 C -16.335938 25.804688 -13.460938 20.792969 -9.191406 14.386719 C -6.777344 10.859375 0 2.878906 2.878906 1.019531 C 2.878906 13.832031 1.671875 27.941406 -4.175781 37.128906 C -6.777344 41.121094 -9.097656 42.605469 -11.140625 42.605469 C -14.296875 42.605469 -16.335938 38.800781 -16.335938 34.714844 Z M 2.226562 -38.335938 C 2.226562 -36.574219 3.0625 -35.921875 3.992188 -35.921875 C 5.105469 -35.921875 6.40625 -36.945312 6.40625 -38.152344 C 6.40625 -40.65625 5.664062 -41.492188 4.828125 -41.492188 C 3.621094 -41.492188 2.226562 -39.730469 2.226562 -38.335938 Z M -18.84375 32.210938 C -18.84375 36.109375 -18.9375 39.820312 -15.964844 42.976562 C -14.574219 44.464844 -13.089844 45.390625 -11.046875 45.390625 C -5.199219 45.390625 -0.464844 38.523438 1.484375 33.695312 C 6.21875 22.742188 7.242188 12.347656 7.242188 -3.0625 C 9.46875 -4.640625 15.78125 -9.933594 18.378906 -11.972656 L 21.164062 -14.203125 C 21.8125 -14.757812 22 -14.386719 22 -15.59375 C 22 -16.335938 21.722656 -16.617188 21.257812 -16.617188 C 19.585938 -16.617188 15.6875 -12.996094 14.386719 -11.972656 L 6.960938 -6.125 C 6.960938 -9.003906 6.589844 -25.621094 3.339844 -25.621094 C 0.277344 -25.621094 -0.648438 -22.277344 0.277344 -21.351562 C 0.742188 -20.886719 0.929688 -20.886719 1.484375 -20.886719 C 1.578125 -20.886719 1.671875 -20.792969 1.949219 -20.234375 C 1.949219 -19.957031 2.414062 -11.046875 2.507812 -10.023438 C 2.691406 -8.355469 2.414062 -6.40625 2.597656 -4.734375 C 2.878906 -2.042969 3.25 -3.0625 1.390625 -1.207031 L -5.292969 5.476562 C -11.417969 11.601562 -18.84375 23.484375 -18.84375 32.210938 Z M -18.84375 32.210938 "/></g></g></g><g fill="#bb636d" fill-opacity="1"><g transform="translate(123.949245, 200.093463)"><g><path d="M 1.300781 -0.371094 C 4.175781 -0.371094 3.0625 -3.527344 3.621094 -5.941406 C 3.992188 -8.167969 4.828125 -10.023438 5.753906 -11.601562 C 7.242188 -14.015625 7.703125 -14.015625 11.230469 -14.015625 C 12.253906 -14.015625 13.644531 -13.921875 14.851562 -13.921875 C 16.707031 -13.921875 18.195312 -14.109375 18.195312 -15.410156 C 18.195312 -16.617188 15.316406 -16.800781 12.625 -16.800781 C 11.046875 -16.800781 9.46875 -16.707031 8.632812 -16.707031 C 5.753906 -16.707031 5.199219 -14.945312 3.804688 -14.015625 C 3.804688 -15.222656 3.992188 -15.128906 3.992188 -16.429688 C 3.992188 -17.359375 3.992188 -18.472656 4.085938 -19.402344 C 4.363281 -22 4.828125 -23.761719 2.320312 -23.761719 C 0.277344 -23.761719 0.09375 -14.109375 0.09375 -12.4375 C 0.1875 -10.117188 0.09375 -7.796875 0.1875 -5.570312 C 0.1875 -4.917969 -0.558594 -0.371094 1.300781 -0.371094 Z M 1.300781 -0.371094 "/></g></g></g><g fill="#bb636d" fill-opacity="1"><g transform="translate(139.079806, 200.093463)"><g><path d="M 0 -9.375 C 0 -6.035156 0.277344 -4.457031 3.714844 -4.457031 C 6.40625 -4.457031 9.28125 -13.179688 11.046875 -14.386719 C 11.046875 -10.394531 14.015625 -5.570312 18.65625 -5.570312 C 20.234375 -5.570312 22 -6.125 23.855469 -7.425781 L 26.640625 -9.652344 C 31.375 -14.203125 30.816406 -16.523438 29.425781 -16.523438 C 28.867188 -16.523438 28.21875 -16.246094 27.753906 -15.59375 C 26.457031 -14.203125 26.175781 -13.367188 24.414062 -11.789062 C 22.371094 -9.746094 20.421875 -8.632812 18.65625 -8.632812 C 16.707031 -8.632812 15.039062 -10.117188 14.296875 -13.460938 C 13.460938 -16.988281 15.039062 -21.164062 11.789062 -21.164062 C 10.582031 -21.164062 6.777344 -13.273438 4.917969 -10.394531 L 4.175781 -9.28125 C 3.714844 -8.726562 3.992188 -9.097656 3.714844 -8.820312 C 3.714844 -11.882812 5.011719 -15.410156 6.21875 -17.359375 C 8.910156 -22 10.769531 -23.300781 12.160156 -23.300781 C 13.921875 -23.300781 15.039062 -21.164062 16.335938 -21.164062 C 18.75 -21.164062 16.335938 -26.457031 11.972656 -26.457031 C 5.476562 -26.457031 0 -14.667969 0 -9.375 Z M 0 -9.375 "/></g></g></g><g fill="#bb636d" fill-opacity="1"><g transform="translate(190.041047, 200.093463)"><g><path d="M 25.433594 42.886719 C 25.25 42.886719 25.0625 42.886719 24.878906 42.886719 C 22.648438 42.886719 21.8125 42.792969 21.8125 40.566406 C 21.8125 37.964844 24.597656 33.789062 25.898438 32.117188 C 30.167969 26.457031 31.5625 25.621094 36.574219 20.886719 L 41.585938 16.429688 C 42.234375 15.964844 42.699219 15.6875 43.257812 15.128906 C 44.09375 14.574219 44.371094 14.109375 45.300781 13.832031 C 45.761719 19.121094 46.132812 22 43.257812 27.753906 C 42.792969 28.960938 41.957031 29.984375 41.308594 31.1875 C 40.472656 32.488281 39.820312 33.230469 38.800781 34.4375 C 36.292969 37.78125 29.703125 42.886719 25.433594 42.886719 Z M 0 -11.046875 C 0 -5.753906 1.949219 -2.042969 5.941406 -0.558594 C 10.117188 1.019531 15.128906 0.835938 20.980469 0.929688 L 28.496094 1.484375 C 35.832031 2.320312 40.75 4.175781 44.09375 10.488281 L 36.667969 16.617188 C 31.652344 20.980469 27.289062 24.785156 23.207031 30.445312 C 20.421875 34.160156 18.84375 37.128906 18.84375 41.679688 C 18.84375 45.578125 23.207031 45.949219 25.804688 45.949219 C 34.996094 45.949219 48.917969 31.097656 48.917969 18.007812 C 48.917969 15.6875 48.453125 13.644531 47.992188 11.695312 C 48.734375 10.582031 55.695312 5.199219 57.644531 3.621094 L 63.585938 -1.207031 C 67.390625 -4.917969 70.546875 -7.425781 74.632812 -11.417969 C 78.808594 -15.59375 77.136719 -13.179688 77.136719 -15.59375 C 76.675781 -15.6875 76.300781 -15.875 75.839844 -15.875 C 75.097656 -15.875 74.261719 -15.316406 72.125 -13.089844 C 70.917969 -11.882812 69.804688 -11.140625 68.597656 -9.933594 L 61.449219 -3.621094 C 57.273438 -0.277344 50.589844 5.753906 46.503906 8.445312 C 45.484375 4.546875 39.542969 0.929688 35.921875 -0.1875 C 29.425781 -2.320312 25.15625 -1.765625 18.566406 -2.136719 C 13.550781 -2.320312 5.753906 -2.136719 3.992188 -6.867188 C 3.0625 -9.5625 3.433594 -12.253906 3.804688 -15.128906 C 4.640625 -19.773438 7.703125 -28.3125 10.394531 -32.488281 C 12.160156 -35.738281 13.179688 -37.78125 15.6875 -41.585938 L 26.640625 -54.675781 C 27.476562 -55.695312 28.21875 -56.066406 29.148438 -56.902344 C 30.632812 -58.386719 33.046875 -59.871094 34.808594 -60.988281 C 37.316406 -62.378906 40.007812 -63.398438 42.605469 -63.398438 C 45.578125 -63.398438 48.269531 -62.101562 50.125 -58.574219 C 54.023438 -51.054688 52.445312 -40.472656 51.148438 -32.582031 C 50.683594 -30.726562 47.527344 -19.773438 50.402344 -19.773438 C 52.445312 -19.773438 52.816406 -22.277344 53.46875 -25.15625 C 55.230469 -31.746094 56.996094 -39.542969 56.996094 -46.875 C 56.996094 -56.4375 52.910156 -66.648438 44.09375 -67.296875 C 34.996094 -67.296875 28.589844 -62.007812 22.371094 -55.972656 C 18.84375 -52.261719 13.832031 -46.132812 11.417969 -41.769531 C 6.035156 -33.324219 0 -20.980469 0 -11.046875 Z M 0 -11.046875 "/></g></g></g><g fill="#bb636d" fill-opacity="1"><g transform="translate(263.93021, 200.093463)"><g><path d="M -26.082031 -41.398438 C -26.082031 -40.101562 -25.15625 -39.820312 -24.132812 -39.820312 C -23.578125 -39.820312 -23.019531 -39.914062 -22.554688 -40.007812 C -21.722656 -41.769531 -22.648438 -41.398438 -20.328125 -42.328125 C -19.214844 -42.792969 -18.378906 -43.441406 -17.265625 -43.90625 C -11.511719 -46.132812 -6.21875 -47.710938 -0.09375 -49.199219 C 0.835938 -49.476562 2.96875 -49.847656 3.527344 -50.03125 L 2.691406 -41.398438 C 2.597656 -40.195312 2.507812 -38.152344 2.320312 -36.945312 C 1.855469 -34.253906 1.765625 -21.722656 1.765625 -18.195312 L 1.484375 -13.832031 C 1.484375 -7.054688 1.207031 3.992188 1.765625 10.675781 C 1.765625 12.902344 1.855469 16.246094 4.269531 16.246094 C 6.683594 16.246094 5.292969 9.839844 5.292969 7.703125 C 5.105469 3.621094 5.199219 -14.945312 5.476562 -17.730469 C 5.664062 -19.679688 5.476562 -23.855469 5.476562 -26.546875 C 5.476562 -27.847656 5.753906 -27.847656 5.753906 -29.054688 C 5.753906 -29.984375 5.664062 -31.097656 5.753906 -31.933594 L 7.613281 -50.960938 C 9.839844 -51.425781 23.949219 -54.117188 29.054688 -54.117188 C 29.703125 -54.117188 30.167969 -54.117188 30.539062 -54.023438 C 31.652344 -53.746094 31.375 -54.117188 31.652344 -53.1875 C 35.179688 -53.1875 34.066406 -56.902344 29.703125 -56.902344 C 24.042969 -56.902344 18.566406 -55.972656 13.179688 -54.953125 C 11.789062 -54.765625 9.839844 -54.210938 8.355469 -54.210938 C 8.355469 -57.179688 10.210938 -54.765625 10.210938 -57.179688 C 10.210938 -57.738281 10.117188 -58.109375 10.117188 -58.386719 C 10.023438 -59.316406 10.210938 -58.574219 10.210938 -59.6875 C 10.210938 -61.171875 9.46875 -62.378906 8.445312 -62.378906 C 7.242188 -62.378906 5.753906 -60.707031 4.828125 -55.695312 C 4.175781 -52.539062 4.457031 -53.375 0.558594 -52.355469 C -4.734375 -50.867188 -26.082031 -45.578125 -26.082031 -41.398438 Z M -26.082031 -41.398438 "/></g></g></g><g fill="#bb636d" fill-opacity="1"><g transform="translate(274.697972, 200.093463)"><g><path d="M 0.09375 -11.324219 C 0.09375 -8.167969 -0.371094 -3.621094 3.898438 -3.621094 C 6.777344 -3.621094 11.140625 -10.675781 12.625 -13.273438 C 13.179688 -14.296875 14.480469 -16.429688 15.222656 -16.894531 C 15.222656 -12.4375 15.59375 -4.734375 21.722656 -4.734375 C 24.507812 -4.734375 27.570312 -6.683594 30.074219 -9.003906 C 31.1875 -10.023438 35.460938 -13.550781 35.460938 -15.128906 C 35.460938 -16.152344 34.714844 -16.335938 33.972656 -16.335938 C 32.210938 -16.335938 26.082031 -7.703125 22 -7.703125 C 20.234375 -7.703125 18.84375 -9.28125 18.285156 -13.738281 C 18.007812 -16.152344 19.214844 -22.277344 16.707031 -22.277344 C 14.945312 -22.277344 14.386719 -20.792969 13.179688 -19.027344 L 7.613281 -10.859375 C 6.683594 -9.652344 5.664062 -7.890625 4.175781 -7.425781 C 2.785156 -13.644531 8.445312 -23.390625 8.445312 -23.761719 C 8.445312 -24.597656 8.167969 -24.597656 8.074219 -25.25 C 7.425781 -25.621094 6.867188 -25.710938 6.40625 -25.710938 C 5.664062 -25.710938 5.011719 -25.339844 4.363281 -24.597656 C 2.042969 -21.628906 0.09375 -15.316406 0.09375 -11.324219 Z M 0.09375 -11.324219 "/></g></g></g><g fill="#bb636d" fill-opacity="1"><g transform="translate(306.073024, 200.093463)"><g><path d="M 3.25 -6.777344 C 3.25 -12.53125 5.199219 -18.75 8.445312 -22.742188 C 9.375 -24.042969 10.394531 -25.25 12.53125 -25.527344 C 12.4375 -24.132812 5.664062 -5.941406 3.621094 -5.941406 C 3.339844 -5.941406 3.25 -6.125 3.25 -6.777344 Z M 13.832031 -28.035156 C 12.4375 -28.035156 12.996094 -28.3125 11.972656 -28.3125 C 3.527344 -28.3125 -4.546875 -2.691406 3.25 -2.691406 C 6.777344 -2.691406 8.539062 -7.332031 9.839844 -10.210938 L 13.089844 -18.101562 C 13.367188 -18.9375 13.273438 -18.75 13.832031 -19.308594 C 13.832031 -15.59375 12.066406 15.59375 16.246094 15.59375 C 19.585938 15.59375 17.265625 13.550781 17.171875 7.519531 C 16.988281 -8.074219 15.78125 -24.414062 20.328125 -39.542969 C 20.886719 -41.769531 24.320312 -51.054688 20.886719 -51.054688 C 20.792969 -51.054688 20.605469 -50.960938 20.421875 -50.960938 C 18.195312 -50.496094 17.171875 -43.90625 16.707031 -41.957031 L 14.757812 -31.46875 C 14.386719 -30.261719 13.832031 -29.332031 13.832031 -28.035156 Z M 13.832031 -28.035156 "/></g></g><g transform="translate(326.865936, 200.093463)"><g><path d="M 7.703125 0.371094 C 12.066406 0.371094 15.59375 -3.714844 17.824219 -6.035156 C 19.308594 -7.519531 24.878906 -13.738281 24.878906 -15.5 C 24.878906 -16.335938 24.597656 -16.617188 24.226562 -16.617188 C 22.464844 -16.617188 17.542969 -10.023438 17.171875 -9.5625 C 15.78125 -7.796875 10.953125 -2.878906 7.984375 -2.878906 C 5.476562 -2.878906 4.457031 -8.355469 4.457031 -11.140625 C 4.457031 -20.605469 8.167969 -24.785156 3.898438 -24.785156 C 2.042969 -24.785156 1.113281 -20.605469 0.835938 -18.65625 C -0.1875 -13.921875 0 -7.519531 2.226562 -3.339844 C 3.25 -1.578125 5.199219 0.371094 7.703125 0.371094 Z M 4.734375 -36.480469 C 4.734375 -34.4375 5.941406 -33.511719 7.242188 -33.511719 C 9.097656 -33.511719 11.046875 -35.550781 9.28125 -38.988281 C 8.726562 -40.007812 8.074219 -40.378906 7.425781 -40.378906 C 6.035156 -40.378906 4.734375 -38.617188 4.734375 -36.480469 Z M 4.734375 -36.480469 "/></g></g></g><g fill="#bb636d" fill-opacity="1"><g transform="translate(348.030145, 200.093463)"><g><path d="M 4.640625 -2.136719 C 2.597656 -6.40625 6.867188 -14.757812 7.519531 -17.453125 C 10.769531 -15.316406 8.445312 -3.15625 4.640625 -2.136719 Z M 0 -5.292969 C 0 -0.464844 2.042969 1.949219 4.457031 1.949219 C 7.242188 1.949219 10.675781 -1.300781 12.066406 -7.703125 C 14.109375 -17.265625 9.652344 -18.84375 9.191406 -20.605469 C 9.652344 -21.351562 10.488281 -21.90625 10.769531 -22.554688 C 11.046875 -23.300781 10.488281 -24.785156 9.28125 -24.785156 C 4.734375 -24.785156 0 -9.46875 0 -5.292969 Z M 0 -5.292969 "/></g></g></g><g fill="#bb636d" fill-opacity="1"><g transform="translate(115.443877, 268.286644)"><g><path d="M 7.6875 -2.71875 L 11.515625 -11.484375 L 13.28125 -11.484375 L 13.921875 0 L 12.15625 0 L 11.6875 -9.875 L 11.625 -9.875 L 7.25 0 L 7 0 L 2.71875 -9.46875 L 2.65625 -9.46875 L 2.1875 0 L 1.421875 0 L 2.0625 -11.484375 L 3.671875 -11.484375 Z M 7.6875 -2.71875 "/></g></g></g><g fill="#bb636d" fill-opacity="1"><g transform="translate(138.914161, 268.286644)"><g><path d="M 10.09375 -11.484375 L 10.09375 -4.4375 C 10.09375 -3.363281 9.976562 -2.554688 9.75 -2.015625 C 9.644531 -1.765625 9.476562 -1.488281 9.25 -1.1875 C 9.03125 -0.882812 8.769531 -0.640625 8.46875 -0.453125 C 7.695312 -0.015625 6.742188 0.203125 5.609375 0.203125 C 2.734375 0.203125 1.296875 -1.269531 1.296875 -4.21875 L 1.296875 -11.484375 L 3.0625 -11.484375 L 3.0625 -4.078125 C 3.0625 -3.742188 3.066406 -3.472656 3.078125 -3.265625 C 3.097656 -3.054688 3.160156 -2.757812 3.265625 -2.375 C 3.378906 -1.988281 3.53125 -1.679688 3.71875 -1.453125 C 3.90625 -1.222656 4.203125 -1.015625 4.609375 -0.828125 C 5.023438 -0.648438 5.519531 -0.5625 6.09375 -0.5625 C 8.25 -0.5625 9.328125 -1.71875 9.328125 -4.03125 L 9.328125 -11.484375 Z M 10.09375 -11.484375 "/></g></g></g><g fill="#bb636d" fill-opacity="1"><g transform="translate(158.363762, 268.286644)"><g><path d="M 2.8125 -9.484375 C 2.8125 -8.972656 3.007812 -8.5 3.40625 -8.0625 C 3.800781 -7.632812 4.285156 -7.253906 4.859375 -6.921875 C 5.429688 -6.597656 6 -6.265625 6.5625 -5.921875 C 7.132812 -5.578125 7.617188 -5.15625 8.015625 -4.65625 C 8.421875 -4.164062 8.625 -3.617188 8.625 -3.015625 C 8.625 -2.066406 8.269531 -1.289062 7.5625 -0.6875 C 6.863281 -0.09375 5.921875 0.203125 4.734375 0.203125 C 3.546875 0.203125 2.367188 -0.0195312 1.203125 -0.46875 L 1.203125 -1.28125 C 2.378906 -0.695312 3.378906 -0.40625 4.203125 -0.40625 C 5.035156 -0.40625 5.679688 -0.601562 6.140625 -1 C 6.597656 -1.40625 6.828125 -1.96875 6.828125 -2.6875 C 6.828125 -3.175781 6.632812 -3.617188 6.25 -4.015625 C 5.875 -4.410156 5.414062 -4.753906 4.875 -5.046875 C 4.332031 -5.347656 3.785156 -5.65625 3.234375 -5.96875 C 2.691406 -6.28125 2.226562 -6.675781 1.84375 -7.15625 C 1.46875 -7.632812 1.28125 -8.210938 1.28125 -8.890625 C 1.28125 -9.578125 1.582031 -10.210938 2.1875 -10.796875 C 2.800781 -11.390625 3.707031 -11.6875 4.90625 -11.6875 C 5.695312 -11.6875 6.691406 -11.507812 7.890625 -11.15625 L 7.71875 -9.96875 C 6.15625 -10.644531 4.820312 -10.984375 3.71875 -10.984375 C 3.113281 -10.691406 2.8125 -10.191406 2.8125 -9.484375 Z M 2.8125 -9.484375 "/></g></g></g><g fill="#bb636d" fill-opacity="1"><g transform="translate(176.062996, 268.286644)"><g><path d="M 1.5625 0 L 1.5625 -11.484375 L 3.265625 -11.484375 L 3.265625 -0.9375 C 3.960938 -0.726562 4.523438 -0.625 4.953125 -0.625 L 8.09375 -1.15625 L 7.890625 0 Z M 1.5625 0 "/></g></g></g><g fill="#bb636d" fill-opacity="1"><g transform="translate(192.566421, 268.286644)"><g><path d="M 3.15625 -11.484375 L 3.15625 0 L 1.5625 0 L 1.5625 -11.484375 Z M 3.15625 -11.484375 "/></g></g></g><g fill="#bb636d" fill-opacity="1"><g transform="translate(205.343771, 268.286644)"><g><path d="M 7.6875 -2.71875 L 11.515625 -11.484375 L 13.28125 -11.484375 L 13.921875 0 L 12.15625 0 L 11.6875 -9.875 L 11.625 -9.875 L 7.25 0 L 7 0 L 2.71875 -9.46875 L 2.65625 -9.46875 L 2.1875 0 L 1.421875 0 L 2.0625 -11.484375 L 3.671875 -11.484375 Z M 7.6875 -2.71875 "/></g></g></g><g fill="#bb636d" fill-opacity="1"><g transform="translate(228.81405, 268.286644)"><g><path d="M 0.171875 0 L 5.328125 -11.765625 L 5.578125 -11.765625 L 10.734375 0 L 8.84375 0 L 7.546875 -3.125 L 2.390625 -3.125 L 1.109375 0 Z M 2.65625 -3.78125 L 7.265625 -3.78125 L 4.984375 -9.40625 Z M 2.65625 -3.78125 "/></g></g></g><g fill="#bb636d" fill-opacity="1"><g transform="translate(247.7784, 268.286644)"><g><path d="M 3.25 -5.6875 L 3.25 0 L 1.5625 0 L 1.5625 -11.484375 L 3.25 -11.484375 L 3.25 -6.34375 L 8.5 -6.34375 L 8.5 -11.484375 L 10.1875 -11.484375 L 10.1875 0 L 8.5 0 L 8.5 -5.6875 Z M 3.25 -5.6875 "/></g></g></g><g fill="#bb636d" fill-opacity="1"><g transform="translate(152.131518, 292.088053)"><g><path d="M 13.8125 -11.484375 L 14.671875 -11.484375 L 10.375 0.265625 L 10.09375 0.265625 L 7.4375 -6.84375 L 4.84375 0.265625 L 4.5625 0.265625 L 0.171875 -11.484375 L 2.0625 -11.484375 L 5.109375 -2.078125 L 7.0625 -7.875 L 5.703125 -11.484375 L 7.59375 -11.484375 L 10.65625 -2.078125 Z M 13.8125 -11.484375 "/></g></g></g><g fill="#bb636d" fill-opacity="1"><g transform="translate(175.0299, 292.088053)"><g><path d="M 1.5625 0 L 1.5625 -11.484375 L 8.515625 -11.484375 L 8.34375 -10.3125 L 5.109375 -10.859375 C 4.546875 -10.859375 3.925781 -10.757812 3.25 -10.5625 L 3.25 -6.34375 L 7.09375 -6.34375 L 7.09375 -5.6875 L 3.25 -5.6875 L 3.25 -0.625 L 8.625 -1.15625 L 8.453125 0 Z M 1.5625 0 "/></g></g></g><g fill="#bb636d" fill-opacity="1"><g transform="translate(192.833112, 292.088053)"><g><path d="M 0.171875 0 L 5.328125 -11.765625 L 5.578125 -11.765625 L 10.734375 0 L 8.84375 0 L 7.546875 -3.125 L 2.390625 -3.125 L 1.109375 0 Z M 2.65625 -3.78125 L 7.265625 -3.78125 L 4.984375 -9.40625 Z M 2.65625 -3.78125 "/></g></g></g><g fill="#bb636d" fill-opacity="1"><g transform="translate(211.797468, 292.088053)"><g><path d="M 3.265625 -5.484375 L 3.265625 0 L 1.5625 0 L 1.5625 -11.484375 L 5.3125 -11.484375 C 6.476562 -11.484375 7.429688 -11.222656 8.171875 -10.703125 C 8.921875 -10.179688 9.296875 -9.492188 9.296875 -8.640625 C 9.296875 -7.796875 9 -7.125 8.40625 -6.625 C 7.8125 -6.132812 7.003906 -5.800781 5.984375 -5.625 L 10.625 0 L 8.625 0.25 L 4.59375 -5.484375 Z M 3.265625 -6 L 4.375 -6 C 6.457031 -6 7.5 -6.820312 7.5 -8.46875 C 7.5 -8.738281 7.425781 -9.050781 7.28125 -9.40625 C 7.019531 -10.132812 6.453125 -10.613281 5.578125 -10.84375 C 4.796875 -10.84375 4.023438 -10.742188 3.265625 -10.546875 Z M 3.265625 -6 "/></g></g></g></svg>